<svg width="517" height="517" viewBox="0 0 517 517" fill="none" xmlns="http://www.w3.org/2000/svg">
<path d="M172.354 258.5C172.354 210.913 210.922 172.326 258.51 172.326C306.099 172.326 344.687 210.913 344.687 258.5C344.687 306.087 306.099 344.674 258.51 344.674C210.922 344.674 172.354 306.087 172.354 258.5ZM125.768 258.5C125.768 331.811 185.197 391.237 258.51 391.237C331.824 391.237 391.252 331.811 391.252 258.5C391.252 185.189 331.824 125.763 258.51 125.763C185.197 125.763 125.768 185.189 125.768 258.5ZM365.486 120.5C365.479 137.632 379.362 151.526 396.495 151.533C413.627 151.54 427.522 137.657 427.529 120.525C427.535 103.393 413.652 89.4996 396.52 89.4927H396.507C379.383 89.5007 365.501 103.377 365.486 120.5ZM154.072 468.913C128.868 467.765 115.169 463.567 106.066 460.02C93.9964 455.322 85.3849 449.726 76.3309 440.685C67.2768 431.643 61.6723 423.04 56.9943 410.972C53.4455 401.872 49.2473 388.17 48.1015 362.967C46.8483 335.719 46.598 327.534 46.598 258.502C46.598 189.47 46.869 181.308 48.1015 154.037C49.2493 128.834 53.4785 115.159 56.9943 106.033C61.693 93.9637 67.2892 85.3526 76.3309 76.2989C85.3725 67.2452 93.9757 61.6409 106.066 56.9631C115.165 53.4144 128.868 49.2163 154.072 48.0707C181.321 46.8175 189.507 46.5672 258.51 46.5672C327.514 46.5672 335.708 46.8381 362.98 48.0707C388.183 49.2184 401.859 53.4475 410.986 56.9631C423.055 61.6409 431.667 67.2576 440.721 76.2989C449.775 85.3402 455.359 93.9637 460.057 106.033C463.606 115.132 467.804 128.834 468.95 154.037C470.203 181.308 470.454 189.47 470.454 258.502C470.454 327.534 470.203 335.696 468.95 362.967C467.802 388.17 463.584 401.868 460.057 410.972C455.359 423.04 449.763 431.652 440.721 440.685C431.679 449.718 423.055 455.322 410.986 460.02C401.886 463.569 388.183 467.767 362.98 468.913C335.73 470.166 327.545 470.416 258.51 470.416C189.476 470.416 181.313 470.166 154.072 468.913ZM151.932 1.56548C124.412 2.81868 105.607 7.18216 89.184 13.5723C72.1761 20.1713 57.7781 29.0244 43.3904 43.3887C29.0028 57.753 20.1721 72.1732 13.5728 89.1804C7.18245 105.613 2.8188 124.407 1.56554 151.926C0.2916 179.488 0 188.3 0 258.5C0 328.7 0.2916 337.512 1.56554 365.074C2.8188 392.595 7.18245 411.387 13.5728 427.82C20.1721 444.816 29.0049 459.253 43.3904 473.611C57.776 487.969 72.1761 496.81 89.184 503.428C105.638 509.818 124.412 514.181 151.932 515.435C179.51 516.688 188.307 517 258.51 517C328.713 517 337.526 516.708 365.089 515.435C392.611 514.181 411.404 509.818 427.837 503.428C444.834 496.81 459.243 487.976 473.63 473.611C488.018 459.247 496.83 444.816 503.448 427.82C509.838 411.387 514.223 392.593 515.455 365.074C516.708 337.491 517 328.7 517 258.5C517 188.3 516.708 179.488 515.455 151.926C514.202 124.405 509.838 105.602 503.448 89.1804C496.83 72.1835 487.995 57.7758 473.63 43.3887C459.265 29.0016 444.834 20.1713 427.857 13.5723C411.404 7.18216 392.609 2.798 365.11 1.56548C337.546 0.312268 328.734 0 258.531 0C188.328 0 179.51 0.291588 151.932 1.56548Z" fill="white"/>
</svg>
