<svg width="1200" height="1148" viewBox="0 0 1200 1148" fill="none" xmlns="http://www.w3.org/2000/svg">
<g clip-path="url(#clip0_2_6)">
<path d="M272.976 1147.13V373.538H15.8482V1147.13H272.976ZM144.445 267.853C234.11 267.853 289.922 208.45 289.922 134.216C288.251 58.3079 234.113 0.553589 146.147 0.553589C58.1937 0.553589 0.677856 58.3091 0.677856 134.216C0.677856 208.454 56.4761 267.853 142.767 267.853H144.437H144.445ZM415.295 1147.13H672.422V715.12C672.422 692 674.093 668.903 680.883 652.375C699.471 606.18 741.779 558.336 812.808 558.336C905.852 558.336 943.074 629.277 943.074 733.272V1147.13H1200.19V703.556C1200.19 465.938 1073.33 355.376 904.158 355.376C765.449 355.376 704.546 432.91 670.711 485.718H672.428V373.522H415.301C418.675 446.112 415.301 1147.12 415.301 1147.12L415.295 1147.13Z" fill="white"/>
</g>
<defs>
<clipPath id="clip0_2_6">
<rect width="1199.32" height="1146.58" fill="white" transform="translate(0.677856 0.554749)"/>
</clipPath>
</defs>
</svg>
