<svg width="498" height="460" viewBox="0 0 498 460" fill="none" xmlns="http://www.w3.org/2000/svg">
<g clip-path="url(#clip0_2_16)">
<path d="M249.287 0.000832109C250.111 -0.0183217 251.088 -0.0374756 252.064 -0.0374756C277.807 -0.0374756 301.769 7.62406 321.784 20.7828L321.306 20.4954C355.936 41.6413 378.71 79.2211 378.71 122.126C378.71 125.478 378.576 128.81 378.288 132.105L378.307 131.684C378.307 141.056 377.407 160.108 375.607 188.839C378.039 190.122 380.912 190.907 383.977 190.946H383.996C389.647 190.486 394.837 189.049 399.587 186.789L399.319 186.904C403.801 184.759 408.992 183.303 414.489 182.863L414.642 182.843C420.925 182.92 426.728 184.931 431.498 188.302L431.402 188.245C436.229 191.041 439.427 196.155 439.485 202.036C439.332 208.893 435.635 214.85 430.157 218.144L430.061 218.201C424.162 222.377 417.266 225.614 409.835 227.529L409.394 227.625C401.56 229.598 394.684 232.586 388.421 236.474L388.727 236.302C383.345 238.945 379.629 244.27 379.303 250.476V250.514C379.725 255.264 381.008 259.631 382.981 263.596L382.885 263.385C390.872 280.72 401.158 295.564 413.57 308.32L413.531 308.282C425.464 320.943 439.849 331.171 455.938 338.2L456.762 338.526C463.523 341.265 471.548 343.659 479.842 345.268L480.685 345.402C485.454 346.034 489.112 350.076 489.112 354.979C489.112 355.305 489.093 355.611 489.074 355.918V355.879C489.074 369.849 467.226 380.128 423.53 386.717C421.787 390.107 420.599 394.072 420.235 398.267V398.382C419.622 403.553 418.128 408.265 415.945 412.536L416.06 412.307C414.298 415.639 410.85 417.861 406.885 417.861C406.636 417.861 406.387 417.861 406.138 417.842H406.176C399.434 417.593 393.037 416.903 386.793 415.773L387.616 415.888C382.004 414.854 375.396 414.164 368.673 413.954H368.462C368.06 413.954 367.581 413.954 367.103 413.954C361.031 413.954 355.074 414.509 349.309 415.582L349.902 415.486C342.815 416.674 336.495 419.03 330.787 422.362L331.055 422.228C324.389 426.002 318.72 429.756 313.318 433.874L313.702 433.606C308.313 437.692 302.528 441.733 296.348 445.73C289.798 449.848 282.251 453.277 274.245 455.594L273.613 455.747C265.051 458.314 255.225 459.789 245.035 459.789C244.652 459.789 244.288 459.789 243.924 459.789H243.982C243.733 459.789 243.426 459.789 243.139 459.789C233.14 459.789 223.506 458.314 214.408 455.556L215.117 455.747C206.574 453.277 199.123 449.848 192.324 445.519L192.668 445.73C186.539 441.733 180.806 437.692 175.468 433.606C170.45 429.775 164.78 426.002 158.862 422.63L158.115 422.228C152.733 419.049 146.45 416.712 139.765 415.544L139.44 415.505C134.134 414.528 128.043 413.973 121.818 413.973C121.378 413.973 120.956 413.973 120.516 413.973H120.573C113.506 414.184 106.763 414.988 100.213 416.348L100.979 416.214C95.884 417.325 89.8889 418.129 83.7405 418.436L83.4532 418.455C83.1659 418.474 82.8211 418.493 82.4763 418.493C78.4157 418.493 74.8722 416.271 73.0143 412.977L72.9952 412.919C70.8882 408.782 69.3942 403.975 68.8388 398.899L68.8196 398.707C68.4749 394.283 67.2873 390.222 65.4486 386.545L65.5252 386.736C21.8416 380.134 -0.000144453 369.855 -0.000144453 355.898C-0.0192983 355.63 -0.0384521 355.305 -0.0384521 354.998C-0.0384521 350.095 3.60078 346.053 8.33178 345.421H8.38924C17.5256 343.659 25.5511 341.284 33.2318 338.219L32.3315 338.545C49.2827 331.247 63.6672 321.019 75.5043 308.378L75.5618 308.301C87.9926 295.602 98.2782 280.758 105.806 264.381L106.208 263.405C108.104 259.65 109.368 255.283 109.79 250.667L109.809 250.533C109.483 244.289 105.767 238.964 100.481 236.359L100.385 236.321C94.4092 232.586 87.4755 229.56 80.1204 227.606L79.5841 227.491C71.6736 225.403 64.7399 222.166 58.5723 217.914L58.8022 218.067C53.2859 214.869 49.57 209.065 49.3785 202.38V202.361C49.4742 196.615 52.5389 191.616 57.0975 188.781L57.1741 188.743C61.7135 185.333 67.4214 183.265 73.6272 183.207H73.6464C78.952 183.763 83.8171 185.142 88.2799 187.211L87.9926 187.096C92.647 189.222 98.0292 190.62 103.718 190.984H103.852H104.235C107.587 190.984 110.747 190.199 113.544 188.819L113.429 188.877C111.628 160.555 110.728 141.599 110.728 132.009C110.594 129.806 110.518 127.221 110.518 124.635C110.518 107.952 113.544 91.9584 119.098 77.21L118.792 78.1294C129.576 53.0953 147.37 32.7922 169.703 19.193L170.258 18.8674C192.304 6.97283 218.507 0.000832109 246.357 0.000832109C247.391 0.000832109 248.425 0.019986 249.46 0.0391398H249.306L249.287 0.000832109Z" fill="white"/>
</g>
<defs>
<clipPath id="clip0_2_16">
<rect width="498" height="459.692" fill="white"/>
</clipPath>
</defs>
</svg>
