<svg width="334" height="267" viewBox="0 0 334 267" fill="none" xmlns="http://www.w3.org/2000/svg">
<path d="M328.539 31.5884C316.455 36.9507 303.476 40.5757 289.829 42.2051C303.757 33.865 314.426 20.6489 319.464 4.91951C306.234 12.7775 291.755 18.3095 276.655 21.2752C264.368 8.17743 246.845 0 227.46 0C190.25 0 160.072 30.1651 160.072 67.3968C160.072 72.6721 160.666 77.8187 161.809 82.7599C105.794 79.9448 56.1337 53.1133 22.8933 12.3427C17.0891 22.3 13.7668 33.8772 13.7668 46.2294C13.7668 69.6091 25.6667 90.2371 43.7484 102.321C33.0443 101.989 22.5752 99.0996 13.2161 93.8943V94.746C13.2161 127.403 36.4444 154.634 67.2785 160.827C61.6143 162.379 55.67 163.19 49.5204 163.19C45.1725 163.19 40.9541 162.779 36.8332 162.004C45.41 188.771 70.3007 208.255 99.7846 208.805C76.7182 226.887 47.6535 237.666 16.086 237.666C10.6489 237.666 5.27531 237.341 0 236.705C29.8311 255.833 65.2507 267 103.313 267C227.276 267 295.072 164.302 295.072 75.241C295.072 72.3172 295.008 69.4151 294.867 66.5234C308.076 56.9694 319.478 45.1397 328.539 31.5884Z" fill="white"/>
</svg>
