<svg width="655" height="456" viewBox="0 0 655 456" fill="none" xmlns="http://www.w3.org/2000/svg">
<path d="M423.388 219.56C365.702 188.733 254.008 130.802 254.008 130.802L402.926 230.894C402.938 230.894 375.799 245.94 423.388 219.56Z" fill="#F6F6F6"/>
<path d="M264.862 446.384C145.043 444.178 104.119 442.193 78.9644 437.011C61.9458 433.567 47.1567 425.922 36.3128 414.833C27.9319 406.44 21.2669 393.636 16.0959 375.87C11.6604 361.069 9.93283 348.755 7.46992 318.674C3.69967 250.787 2.80089 195.284 7.46992 133.267C11.3219 99.0198 13.1895 58.3642 38.7758 34.6456C50.8569 23.5449 64.9107 16.4013 80.692 13.4482C105.344 8.76747 210.374 5.06726 319.104 5.06726C427.589 5.06726 532.852 8.76747 557.528 13.4482C577.243 17.1484 595.733 28.2373 606.588 42.5362C629.933 79.2581 630.342 124.921 632.711 160.639C633.692 177.658 633.692 274.295 632.711 291.314C629.023 347.762 626.058 367.734 617.677 388.441C612.494 401.515 608.071 408.413 600.413 416.059C588.404 427.824 573.094 435.65 556.524 438.493C452.837 446.291 364.791 447.983 264.862 446.384ZM423.644 219.562C365.958 188.735 310.723 160.149 254.263 130.559V307.585C313.677 275.287 376.312 245.697 423.889 219.317L423.644 219.562Z" fill="white"/>
</svg>
